# File created by Blade
# Date/Time:  Wed Sep 24 19:10:19 2014
# Frame Rate: 120.000 fps
#------------------------------------------------------
:FULLY-SPECIFIED
:DEGREES
1261
root -8.066309 32.476473 -3.961619 1.982562 10.287208 0.044547
Spine -4.106208 2.264327 7.658613
Head 3.004452 -10.146985 3.490086
LeftShoulder -5.381024 13.199579 15.219411
LeftArm 21.897155 -23.242183 -70.292278
LeftForeArm 7.198644 -0.000000 64.663858
LeftHand -36.978315 0.000000 51.698866
LeftHandThumb1 -26.253704 0.000000 33.147579
RightShoulder -18.407068 9.353105 -18.778871
RightArm -14.940641 -22.902556 85.499881
RightForeArm -22.011121 -0.000000 24.483805
RightHand -5.557608 -0.000000 9.757368
RightHandThumb1 -24.326973 -0.000000 -32.862282
LeftUpLeg -101.876237 3.366537 -42.194749
LeftLeg 118.055017 -0.000000 -0.000000
LeftFoot 36.439179 15.578842 -27.322652
LeftToeBase 7.222635 -0.000000 -0.000000
RightUpLeg -8.299152 -5.884704 6.749896
RightLeg 17.934114 -0.000000 -0.000000
RightFoot -14.853884 -17.954560 -4.883679
RightToeBase -0.089040 -0.000000 0.000000
1262
root -8.061164 32.461932 -3.962565 1.960664 10.046348 -0.035530
Spine -4.058155 2.489535 7.767320
Head 3.050139 -10.137823 3.541802
LeftShoulder -5.396129 13.174556 15.254326
LeftArm 21.932011 -23.330907 -70.369269
LeftForeArm 7.150996 0.000000 64.557184
LeftHand -36.949001 -0.000000 51.555528
LeftHandThumb1 -26.253704 0.000000 33.147579
RightShoulder -18.342372 9.406457 -18.760111
RightArm -14.955086 -22.902032 85.582995
RightForeArm -21.948844 -0.000000 24.287931
RightHand -5.447017 -0.000000 9.714530
RightHandThumb1 -24.326973 -0.000000 -32.862282
LeftUpLeg -102.099395 3.320452 -41.997677
LeftLeg 118.001581 -0.000000 -0.000000
LeftFoot 36.564381 15.557851 -27.254922
LeftToeBase 7.064876 -0.000000 -0.000000
RightUpLeg -8.423810 -5.667357 6.824917
RightLeg 18.211546 -0.000000 -0.000000
RightFoot -14.922465 -18.018428 -4.964172
RightToeBase -0.115094 -0.000000 0.000000
1263
root -8.053792 32.448706 -3.963118 1.950106 9.784495 -0.100951
Spine -4.024773 2.738699 7.865600
Head 3.086766 -10.155253 3.556548
LeftShoulder -5.427662 13.239913 15.293387
LeftArm 22.099338 -23.436251 -70.523658
LeftForeArm 7.143206 -0.000000 64.366154
LeftHand -36.898260 -0.000000 51.472428
LeftHandThumb1 -26.253704 0.000000 33.147579
RightShoulder -18.299611 9.430128 -18.788881
RightArm -14.973489 -22.941727 85.717233
RightForeArm -21.907607 0.000000 24.143760
RightHand -5.460265 -0.000000 9.756090
RightHandThumb1 -24.326973 -0.000000 -32.862282
LeftUpLeg -102.304436 3.301834 -41.677542
LeftLeg 117.894078 -0.000000 -0.000000
LeftFoot 36.476440 15.692387 -27.390400
LeftToeBase 7.182303 -0.000000 -0.000000
RightUpLeg -8.548739 -5.467187 6.882842
RightLeg 18.473288 -0.000000 -0.000000
RightFoot -14.989126 -18.066340 -5.054337
RightToeBase -0.100561 -0.000000 0.000000
1264
root -8.047763 32.439740 -3.966821 1.974318 9.493755 -0.126090
Spine -4.023389 2.986950 7.888497
Head 3.155803 -10.149732 3.610360
LeftShoulder -5.458682 13.228416 15.327825
LeftArm 22.115418 -23.508052 -70.547868
LeftForeArm 7.138911 0.000000 64.222206
LeftHand -36.896303 0.000000 51.398682
LeftHandThumb1 -26.253704 0.000000 33.147579
RightShoulder -18.248418 9.436269 -18.786901
RightArm -14.976538 -23.034139 85.864740
RightForeArm -21.795002 -0.000000 24.011890
RightHand -5.355441 -0.000000 10.054116
RightHandThumb1 -24.326973 -0.000000 -32.862282
LeftUpLeg -102.506117 3.279623 -41.245510
LeftLeg 117.679386 -0.000000 -0.000000
LeftFoot 36.560485 15.689749 -27.074012
LeftToeBase 6.925835 -0.000000 -0.000000
RightUpLeg -8.692240 -5.191516 6.907178
RightLeg 18.705600 -0.000000 -0.000000
RightFoot -15.009728 -18.160464 -5.139433
RightToeBase -0.127975 -0.000000 0.000000
